<svg width="134" height="134" viewBox="0 0 134 134" fill="none" xmlns="http://www.w3.org/2000/svg">
<g filter="url(#filter0_i_71_395)">
<path d="M72.5837 106.083C72.5837 107.982 72.807 109.824 73.0862 111.667H22.3337C19.3721 111.667 16.5318 110.49 14.4376 108.396C12.3435 106.302 11.167 103.462 11.167 100.5V33.5002C11.167 27.3027 16.1362 22.3335 22.3337 22.3335H55.8337L67.0003 33.5002H111.667C114.629 33.5002 117.469 34.6766 119.563 36.7708C121.657 38.865 122.834 41.7052 122.834 44.6668V77.106C117.92 74.2585 112.225 72.5835 106.084 72.5835C87.6028 72.5835 72.5837 87.6027 72.5837 106.083ZM111.667 100.5V83.7502H100.5V100.5H83.7503V111.667H100.5V128.417H111.667V111.667H128.417V100.5H111.667Z" fill="#A09EA0"/>
</g>
<defs>
<filter id="filter0_i_71_395" x="0" y="0" width="134" height="138" filterUnits="userSpaceOnUse" color-interpolation-filters="sRGB">
<feFlood flood-opacity="0" result="BackgroundImageFix"/>
<feBlend mode="normal" in="SourceGraphic" in2="BackgroundImageFix" result="shape"/>
<feColorMatrix in="SourceAlpha" type="matrix" values="0 0 0 0 0 0 0 0 0 0 0 0 0 0 0 0 0 0 127 0" result="hardAlpha"/>
<feOffset dy="4"/>
<feGaussianBlur stdDeviation="2"/>
<feComposite in2="hardAlpha" operator="arithmetic" k2="-1" k3="1"/>
<feColorMatrix type="matrix" values="0 0 0 0 0 0 0 0 0 0 0 0 0 0 0 0 0 0 0.05 0"/>
<feBlend mode="normal" in2="shape" result="effect1_innerShadow_71_395"/>
</filter>
</defs>
</svg>
